<svg width="10" height="10" viewBox="0 0 10 10" fill="none" xmlns="http://www.w3.org/2000/svg">
<path fill-rule="evenodd" clip-rule="evenodd" d="M5 0C5.66304 0 6.29893 0.263392 6.76777 0.732233C7.23661 1.20107 7.5 1.83696 7.5 2.5V3.78125C7.85293 3.85329 8.17012 4.04506 8.39791 4.32409C8.62569 4.60313 8.75007 4.9523 8.75 5.3125V8.4375C8.75 8.8519 8.58538 9.24933 8.29235 9.54235C7.99933 9.83538 7.6019 10 7.1875 10H2.8125C2.3981 10 2.00067 9.83538 1.70765 9.54235C1.41462 9.24933 1.25 8.8519 1.25 8.4375V5.3125C1.24993 4.9523 1.37431 4.60313 1.60209 4.32409C1.82988 4.04506 2.14707 3.85329 2.5 3.78125V2.5C2.5 1.83696 2.76339 1.20107 3.23223 0.732233C3.70107 0.263392 4.33696 0 5 0ZM5 0.625C4.50272 0.625 4.02581 0.822544 3.67417 1.17417C3.32254 1.52581 3.125 2.00272 3.125 2.5V3.75H6.875V2.5C6.875 2.00272 6.67746 1.52581 6.32583 1.17417C5.97419 0.822544 5.49728 0.625 5 0.625Z" fill="black"/>
</svg>
