<svg width="16" height="16" viewBox="0 0 16 16" fill="none" xmlns="http://www.w3.org/2000/svg">
<path d="M10.6667 12.6693C10.3 12.6693 9.98622 12.5388 9.72533 12.2779C9.46444 12.0171 9.33378 11.7031 9.33333 11.3359V4.66927C9.33333 4.30261 9.464 3.98883 9.72533 3.72794C9.98667 3.46705 10.3004 3.33638 10.6667 3.33594C11.0329 3.33549 11.3469 3.46616 11.6087 3.72794C11.8704 3.98972 12.0009 4.30349 12 4.66927V11.3359C12 11.7026 11.8696 12.0166 11.6087 12.2779C11.3478 12.5393 11.0338 12.6697 10.6667 12.6693ZM5.33333 12.6693C4.96667 12.6693 4.65289 12.5388 4.392 12.2779C4.13111 12.0171 4.00044 11.7031 4 11.3359V4.66927C4 4.30261 4.13067 3.98883 4.392 3.72794C4.65333 3.46705 4.96711 3.33638 5.33333 3.33594C5.69956 3.33549 6.01356 3.46616 6.27533 3.72794C6.53711 3.98972 6.66756 4.30349 6.66667 4.66927V11.3359C6.66667 11.7026 6.53622 12.0166 6.27533 12.2779C6.01444 12.5393 5.70044 12.6697 5.33333 12.6693Z" fill="black"/>
</svg>
