<svg width="16" height="16" viewBox="0 0 16 16" fill="none" xmlns="http://www.w3.org/2000/svg">
<path d="M4.23915 5.17931L5.30182 4.85398C5.38556 4.82837 5.47352 4.81951 5.56068 4.82789C5.64785 4.83628 5.73251 4.86175 5.80983 4.90286C5.88715 4.94397 5.95562 4.9999 6.01132 5.06746C6.06702 5.13503 6.10888 5.21291 6.13448 5.29664C6.16009 5.38038 6.16895 5.46835 6.16057 5.55551C6.15218 5.64268 6.12671 5.72734 6.0856 5.80466C6.0445 5.88198 5.98856 5.95044 5.921 6.00615C5.85343 6.06185 5.77556 6.1037 5.69182 6.12931L3.14182 6.90931C3.05803 6.93493 2.97002 6.94378 2.88282 6.93535C2.79562 6.92693 2.71093 6.90141 2.63359 6.86023C2.55626 6.81906 2.4878 6.76305 2.43213 6.6954C2.37646 6.62775 2.33467 6.54979 2.30915 6.46598L1.52915 3.91598C1.50354 3.83224 1.49468 3.74428 1.50307 3.65711C1.51145 3.56995 1.53693 3.48529 1.57803 3.40797C1.61914 3.33065 1.67507 3.26218 1.74264 3.20647C1.8102 3.15077 1.88808 3.10892 1.97182 3.08331C2.14094 3.03159 2.32367 3.04918 2.47983 3.13219C2.63598 3.21521 2.75277 3.35686 2.80448 3.52598L3.09782 4.48664C4.70315 2.01398 7.88782 0.950644 10.7151 2.10931C11.5607 2.45585 12.32 2.98349 12.9397 3.6551C13.5594 4.32672 14.0243 5.12598 14.3018 5.99664C14.3303 6.08051 14.3417 6.16921 14.3355 6.25756C14.3293 6.3459 14.3055 6.43213 14.2656 6.51119C14.2257 6.59025 14.1705 6.66058 14.1031 6.71805C14.0357 6.77552 13.9576 6.81899 13.8732 6.84591C13.7888 6.87284 13.6999 6.88269 13.6117 6.87488C13.5235 6.86707 13.4377 6.84176 13.3594 6.80043C13.2811 6.75911 13.2117 6.70258 13.1555 6.63417C13.0993 6.56576 13.0572 6.48682 13.0318 6.40198C12.7502 5.51756 12.2241 4.73084 11.5144 4.13264C10.8047 3.53445 9.94027 3.14919 9.02093 3.02134C8.1016 2.8935 7.16485 3.02827 6.31885 3.41012C5.47285 3.79196 4.75143 4.4053 4.23915 5.17931ZM12.4571 10.6426L11.2738 10.938C11.1881 10.9615 11.0986 10.9676 11.0105 10.956C10.9224 10.9444 10.8376 10.9153 10.7609 10.8705C10.6842 10.8256 10.6172 10.7659 10.564 10.6948C10.5107 10.6237 10.4722 10.5426 10.4507 10.4564C10.4292 10.3702 10.4251 10.2806 10.4387 10.1928C10.4524 10.105 10.4834 10.0208 10.53 9.94518C10.5767 9.86955 10.6379 9.80401 10.7102 9.7524C10.7826 9.70079 10.8645 9.66415 10.9511 9.64465L13.3798 9.03865C13.5064 8.97858 13.6487 8.95991 13.7865 8.98531C13.9192 9.00277 14.0437 9.05981 14.1436 9.14899C14.2434 9.23818 14.3142 9.35537 14.3465 9.48531L14.9918 12.072C15.03 12.2419 15.0003 12.42 14.9089 12.5682C14.8175 12.7164 14.6717 12.823 14.5028 12.8652C14.3338 12.9073 14.1551 12.8817 14.0048 12.7938C13.8545 12.7058 13.7445 12.5626 13.6985 12.3946L13.4785 11.5133C12.8366 12.437 11.9575 13.1705 10.9337 13.6365C9.90991 14.1025 8.77941 14.2838 7.66126 14.1612C6.54312 14.0387 5.47873 13.6168 4.58022 12.9401C3.68171 12.2633 2.98236 11.3568 2.55582 10.316L2.38248 9.89331C2.3493 9.81229 2.33241 9.72552 2.33276 9.63796C2.33311 9.55041 2.3507 9.46378 2.38454 9.38302C2.41837 9.30227 2.46777 9.22897 2.52993 9.1673C2.59209 9.10564 2.66579 9.05683 2.74682 9.02365C2.91045 8.95663 3.09401 8.95737 3.25711 9.0257C3.33786 9.05953 3.41116 9.10894 3.47283 9.1711C3.53449 9.23326 3.5833 9.30695 3.61648 9.38798L3.78982 9.80998C4.12965 10.6392 4.68948 11.3599 5.40889 11.8942C6.1283 12.4286 6.97998 12.7563 7.87202 12.8421C8.76406 12.9278 9.66258 12.7684 10.4706 12.3809C11.2787 11.9934 11.9656 11.3919 12.4571 10.6426Z" fill="black"/>
</svg>
