<svg width="40" height="40" viewBox="0 0 40 40" fill="none" xmlns="http://www.w3.org/2000/svg">
<path d="M8.33073 10.8318V29.1651H1.66406V10.8318H8.33073ZM11.6641 30.3484L24.9974 37.8484V2.14844L11.6641 9.64844V30.3484ZM35.9657 12.9651L34.9624 11.6334L32.3024 13.6434L33.3057 14.9734C34.399 16.4207 34.9902 18.1852 34.9896 19.999C34.989 21.8128 34.3966 23.5769 33.3024 25.0234L32.2974 26.3518L34.9557 28.3618L35.9607 27.0334C37.4927 25.0083 38.322 22.5386 38.3229 19.9993C38.3238 17.46 37.4962 14.9897 35.9657 12.9634" fill="white" fill-opacity="0.4"/>
<path d="M31.3151 16.4784L30.3101 15.1484L27.6501 17.1568L28.6551 18.4868C28.9832 18.9209 29.1607 19.4501 29.1607 19.9943C29.1607 20.5384 28.9832 21.0677 28.6551 21.5018L27.6484 22.8301L30.3068 24.8418L31.3118 23.5118C32.0775 22.4994 32.492 21.265 32.4926 19.9957C32.4933 18.7264 32.0798 17.4915 31.3151 16.4784Z" fill="white" fill-opacity="0.4"/>
</svg>
