<svg width="10" height="10" viewBox="0 0 10 10" fill="none" xmlns="http://www.w3.org/2000/svg">
<path fill-rule="evenodd" clip-rule="evenodd" d="M2.0851 3.24427C2.80635 2.64635 3.8351 2.08594 5.0026 2.08594C6.1701 2.08594 7.19844 2.64635 7.9201 3.24427C8.24643 3.51157 8.53962 3.81693 8.79344 4.15385C8.89885 4.29719 8.98719 4.43802 9.05094 4.56927C9.10927 4.68844 9.16927 4.84344 9.16927 5.0026C9.16927 5.16177 9.10885 5.31677 9.05094 5.43594C8.9776 5.58178 8.89143 5.7208 8.79344 5.85135C8.53962 6.18827 8.24643 6.49364 7.9201 6.76094C7.19885 7.35885 6.1701 7.91927 5.0026 7.91927C3.8351 7.91927 2.80677 7.35885 2.0851 6.76094C1.75878 6.49364 1.46559 6.18827 1.21177 5.85135C1.11378 5.7208 1.0276 5.58178 0.954271 5.43594C0.895937 5.31677 0.835938 5.16177 0.835938 5.0026C0.835938 4.84344 0.896354 4.68844 0.954271 4.56927C1.01802 4.43802 1.10635 4.29719 1.21177 4.15385C1.46559 3.81693 1.75878 3.51157 2.0851 3.24427ZM5.0026 6.2526C5.33412 6.2526 5.65207 6.12091 5.88649 5.88649C6.12091 5.65207 6.2526 5.33413 6.2526 5.0026C6.2526 4.67108 6.12091 4.35314 5.88649 4.11872C5.65207 3.8843 5.33412 3.7526 5.0026 3.7526C4.67108 3.7526 4.35314 3.8843 4.11872 4.11872C3.8843 4.35314 3.7526 4.67108 3.7526 5.0026C3.7526 5.33413 3.8843 5.65207 4.11872 5.88649C4.35314 6.12091 4.67108 6.2526 5.0026 6.2526Z" fill="black"/>
</svg>
